<svg xmlns="http://www.w3.org/2000/svg" viewBox="0 0 743.66 673.36"><defs><style>.cls-1{fill:none;stroke:#000;stroke-linecap:round;stroke-miterlimit:10;stroke-width:11px;}</style></defs><g id="Layer_2" data-name="Layer 2"><g id="Layer_2-2" data-name="Layer 2"><path d="M672.61,339.64c-.22.92-.39,1.69-.5,2.33a13.27,13.27,0,0,0-.18,2.06,7.26,7.26,0,0,0,1.81,5.1,31,31,0,0,0,7.14,5.17Q692.39,361.05,700,366A97.74,97.74,0,0,1,712.25,375a24.77,24.77,0,0,1,6.47,8.46,23.2,23.2,0,0,1,1.76,9.49,51.46,51.46,0,0,1-1.06,9.19q-1,5.07-2.66,11.64l-8.91,35q-3.95,15.06-8.45,24.06a33.07,33.07,0,0,1-12.08,13.71q-7.58,4.71-19.19,6.07A233.63,233.63,0,0,1,639,493.81q-12.86-.17-21.92-1.1a47.86,47.86,0,0,1-14.67-3.49,17.18,17.18,0,0,1-8.21-7.11q-2.61-4.56-2.51-12A60,60,0,0,1,592.75,460q1-5.48,2.67-12.6l10.89-43,49.48.64-11.56,46.26c0,1.83,1.64,2.76,5,2.81q4.06,0,5.34-1.17a10.84,10.84,0,0,0,2.25-4.78l9.9-38.86a12.84,12.84,0,0,0,.36-3.29,6.27,6.27,0,0,0-1.36-4,18.87,18.87,0,0,0-5.12-4q-12.12-6.75-20.21-11.8a93.27,93.27,0,0,1-12.88-9.36,29.69,29.69,0,0,1-6.93-8.6,21.57,21.57,0,0,1-2.07-10.05,48.34,48.34,0,0,1,1.06-8.78q1-4.92,2.65-11.22l5.28-21.35q3.64-15.06,8.3-23.92A34.27,34.27,0,0,1,648,279.33q7.59-4.71,19-6.08a230.2,230.2,0,0,1,29-1.13q13.15.17,22.23,1.11a48,48,0,0,1,14.68,3.48,17.58,17.58,0,0,1,8.21,7c1.73,3,2.58,6.9,2.51,11.84q-.1,8.24-3.74,22.75L733,345.64l-49.8-.64,7.6-30.66c0-1.83-1.64-2.77-5-2.81q-4.08-.06-5.5,1.16t-2.1,4.78Z"/><polygon points="478.46 273.14 451.69 351.56 432.16 408.75 402.73 494.96 402.56 495.45 353.53 495.28 383.07 408.75 338.56 408.75 309.07 495.13 260.69 494.96 336.46 272.99 386.29 272.99 359.58 351.24 404.04 351.39 430.75 273.14 478.46 273.14"/><polygon points="628.16 272.99 606.75 333.69 565.52 333.54 560.87 347.16 559.29 351.78 559.24 351.94 540.26 407.54 534.03 425.78 533.98 425.93 514.53 482.92 510.42 494.96 510.36 495.13 460.14 494.96 489.57 408.75 509.02 351.76 509.07 351.61 515.3 333.37 473.55 333.22 494.11 272.99 628.16 272.99"/><path d="M248.31,149s8-18-12-38-109-111-109-111-20,29,0,50,165,172,165,172,14-72,51-32c0,0,35-37-44-79,0,0,7,19-3,19C296.31,130,264.31,128,248.31,149Z"/><path d="M52.31,0s-30,36,0,62,213,203,226,215,1.32,21.07-9.89,11.17L90.28,119.28s-16.49,24.41,10.56,50.8,143.83,140.72,157,155,2.64,23.36-9.23,14.32-113.48-108-113.48-108S122.61,257.17,151,284.22,263.8,393.73,263.8,393.73s33-72.57,44.86-103.58-19.79-49.48-88.4-120.07S52.31,0,52.31,0Z"/><path d="M171.61,332.65s-14.72,19.63,11,44.16,49.08,50.92,55.82,58.89-4.29,14.73-8.58,9.21S204,419.75,204,419.75s22.81,47,27.72,74.09c0,0,15.33-36,23.92-60s-4.91-28.72-17.79-40.13S171.61,332.65,171.61,332.65Z"/><path class="cls-1" d="M678.19,506.9c-60.44,95.84-178.83,161-315,161C165.65,667.86,5.5,530.78,5.5,361.69c0-64.91,23.6-125.11,63.86-174.64"/><path class="cls-1" d="M245,72.65A411.85,411.85,0,0,1,363.2,55.53c152.12,0,282.07,81.28,333.79,195.87"/><path d="M72.61,345.27,39,340l1.78-11.35,12.41,1.95,1.64-10.48-12.4-2,1.78-11.35,33.67,5.29L76,323.44l-11.92-1.88-1.65,10.49,11.93,1.87Z"/><path d="M72.83,351.94l-.16,11.49-34.08-.49.17-11.49Z"/><path d="M59.07,394.3l1.21,9.91L46,406a23.37,23.37,0,0,1-4-6.57,29.05,29.05,0,0,1-2.06-7.64,20.92,20.92,0,0,1,1.05-10,16.93,16.93,0,0,1,5.46-7.51A18.52,18.52,0,0,1,64.7,372a16.84,16.84,0,0,1,7.11,6,21.47,21.47,0,0,1,3.46,9.61,22.78,22.78,0,0,1-.57,9.12,16.85,16.85,0,0,1-4.06,7.15l-7.32-6.51a9.78,9.78,0,0,0,2.79-8.05,8.09,8.09,0,0,0-3-5.71,8.52,8.52,0,0,0-6.46-1.46,8.59,8.59,0,0,0-5.87,2.95,7.73,7.73,0,0,0-1.6,6.15,10.92,10.92,0,0,0,1.33,4.06Z"/><path d="M87.53,439.25,55.05,449.57l-3.48-10.95,12-3.8L60.33,424.7l-12,3.8-3.48-10.95,32.48-10.31,3.48,10.95-11.51,3.65L72.54,432l11.51-3.66Z"/><path d="M93.77,470.85l-5.19-8.52,7.6-4.64,16.37,26.85-7.6,4.64-5.2-8.52-21.49,13.1-6-9.81Z"/><path d="M113.28,525.73l-6.7,5.49-18-21.93L115,487.71l17.54,21.44-6.7,5.48-10.39-12.7-3.09,2.53,9.12,11.16-6.4,5.24L106,509.7l-3.47,2.84Z"/><path d="M120.31,542.9a16.86,16.86,0,0,1-.67-9.26,18.56,18.56,0,0,1,12.56-13.52,16.92,16.92,0,0,1,9.28,0,20.57,20.57,0,0,1,8.67,5,21.21,21.21,0,0,1,5.3,7.31,16.47,16.47,0,0,1,1.27,8.08l-9.72-.19q.39-5.09-2.74-8a7.6,7.6,0,0,0-5.82-2.25,9.9,9.9,0,0,0-8.45,9.09,7.59,7.59,0,0,0,2.67,5.64c2.09,1.94,4.82,2.66,8.17,2.15l.91,9.68a16.42,16.42,0,0,1-8.15-.67,21.42,21.42,0,0,1-7.69-4.74A20.71,20.71,0,0,1,120.31,542.9Z"/><path d="M191.8,558l-19.55,27.92-9.41-6.59L170,569l-8.69-6.09-7.21,10.29-9.41-6.58,19.54-27.93,9.42,6.59-6.93,9.9,8.7,6.08,6.92-9.89Z"/><path d="M202.66,602.29a21.9,21.9,0,0,1-4.92-5.08l6.87-6.05a23.76,23.76,0,0,0,4,4.34,21.48,21.48,0,0,0,4.91,3.2,8.8,8.8,0,0,0,3.28,1,1.47,1.47,0,0,0,1.51-.83,1.75,1.75,0,0,0-.54-2,28.48,28.48,0,0,0-3.51-2.91,50.46,50.46,0,0,1-5.22-4.37,11.32,11.32,0,0,1-2.85-4.75,8.44,8.44,0,0,1,.7-6.14,10.12,10.12,0,0,1,4.08-4.55,11.86,11.86,0,0,1,6.62-1.5,22.36,22.36,0,0,1,8.52,2.28,31.85,31.85,0,0,1,5.94,3.57,21.75,21.75,0,0,1,4.49,4.51l-6.63,6.11a21.19,21.19,0,0,0-7.56-6.28q-4-1.86-4.92.09a1.68,1.68,0,0,0,.55,1.94,27.75,27.75,0,0,0,3.47,2.81,44.76,44.76,0,0,1,5.27,4.28,11.47,11.47,0,0,1,2.92,4.76,8.34,8.34,0,0,1-.66,6.13,10,10,0,0,1-4.08,4.53,12.13,12.13,0,0,1-6.61,1.5,22.18,22.18,0,0,1-8.54-2.25A35.86,35.86,0,0,1,202.66,602.29Z"/><path d="M237.59,613.82q-2.84-5.4-.43-12.65l5.88-17.8L254,587l-5.78,17.48c-.78,2.37-.93,4.24-.44,5.59a5.23,5.23,0,0,0,7.35,2.43c1.21-.79,2.2-2.38,3-4.75l5.77-17.47,10.73,3.54-5.89,17.8q-2.4,7.26-7.89,9.9t-12.93.19Q240.42,619.22,237.59,613.82Z"/><path d="M290.23,623.39l-3.06-.64-1.73,8.4-11.25-2.33,6.89-33.37,16.07,3.32a20,20,0,0,1,7.74,3.19,12.59,12.59,0,0,1,2,18.45,11.68,11.68,0,0,1-5.55,3.27l4.88,11.75-12-2.48ZM297.86,609a5.07,5.07,0,0,0-3.22-1.73l-4.1-.85-1.61,7.82,4.1.85a5.1,5.1,0,0,0,3.64-.32,4.3,4.3,0,0,0,1.19-5.77Z"/><path d="M354.41,606.08,336.94,638.7l-11.25-1-11.23-35.25,12.31,1.13,6.28,20.57L343.16,605Z"/><path d="M385.68,631l.09,8.66-28.33.3-.35-34.08,27.7-.29.09,8.67-16.41.17,0,4,14.41-.15.09,8.28-14.41.15,0,4.47Z"/><path d="M392,604.9l11.45-1,2.94,34-11.45,1Z"/><path d="M411.18,603.19l11.34-1.83,4,24.84,15.19-2.46,1.42,8.8-26.53,4.29Z"/><path d="M442.6,597.76l11.12-2.89,6.33,24.36,14.89-3.87,2.24,8.62-26,6.76Z"/><path d="M505.33,607.53l-12.1,4.63v6.37l-10.91,4.17L484,585.55l10.55-4L520.68,608l-11.09,4.24Zm-5.91-6.6-6.16-6.82,0,9.19Z"/><path d="M540.78,558.81l16.14,30-8.32,4.47-18.73-7.51,7.33,13.64-9.87,5.3-16.13-30,8.32-4.48,18.73,7.51-7.33-13.64Z"/><path d="M571.9,577a16.88,16.88,0,0,1-9.21-1.17,18.52,18.52,0,0,1-10.77-15,17,17,0,0,1,1.82-9.1,20.71,20.71,0,0,1,6.58-7.53,21.49,21.49,0,0,1,8.22-3.75,16.59,16.59,0,0,1,8.17.36l-2.1,9.49c-3.27-.92-6.07-.56-8.38,1.11a7.64,7.64,0,0,0-3.36,5.26,9.9,9.9,0,0,0,7.25,10.08,7.6,7.6,0,0,0,6-1.5q3.48-2.5,3.72-7.59l9.67,1a16.35,16.35,0,0,1-2.26,7.86,21.43,21.43,0,0,1-6.17,6.6A20.74,20.74,0,0,1,571.9,577Z"/><path d="M614.6,532.16l5.92,6.33L599.8,557.83l-23.25-24.92L596.8,514l5.91,6.33-12,11.2,2.72,2.92L604,524.62l5.64,6-10.53,9.84,3.06,3.27Z"/></g></g></svg>