<?xml version="1.0" encoding="UTF-8" standalone="no"?>
<svg
   id="Capa_2"
   data-name="Capa 2"
   viewBox="0 0 307.07 307.07"
   version="1.1"
   sodipodi:docname="icon-instagram.svg"
   inkscape:version="1.3.2 (091e20ef0f, 2023-11-25, custom)"
   xmlns:inkscape="http://www.inkscape.org/namespaces/inkscape"
   xmlns:sodipodi="http://sodipodi.sourceforge.net/DTD/sodipodi-0.dtd"
   xmlns="http://www.w3.org/2000/svg"
   xmlns:svg="http://www.w3.org/2000/svg">
  <sodipodi:namedview
     id="namedview3"
     pagecolor="#ffffff"
     bordercolor="#000000"
     borderopacity="0.25"
     inkscape:showpageshadow="2"
     inkscape:pageopacity="0.0"
     inkscape:pagecheckerboard="0"
     inkscape:deskcolor="#d1d1d1"
     inkscape:zoom="1.6934249"
     inkscape:cx="153.535"
     inkscape:cy="153.535"
     inkscape:window-width="1366"
     inkscape:window-height="717"
     inkscape:window-x="0"
     inkscape:window-y="27"
     inkscape:window-maximized="1"
     inkscape:current-layer="Capa_2" />
  <defs
     id="defs1">
    <style
       id="style1">.cls-1 {   }
</style>
  </defs>
  <g
     id="Capa_1-2"
     data-name="Capa 1">
    <g
       id="g3">
      <path
         d="m241.14,307.07H65.92C29.57,307.07,0,277.49,0,241.14V65.92C0,29.57,29.57,0,65.92,0h175.22c36.36,0,65.93,29.57,65.93,65.92v175.22c0,36.35-29.57,65.93-65.93,65.93ZM65.92,15.01c-28.08,0-50.91,22.84-50.91,50.91v175.22c0,28.08,22.83,50.92,50.91,50.92h175.22c28.08,0,50.93-22.84,50.93-50.92V65.92c0-28.07-22.85-50.91-50.93-50.91H65.92Z"
         id="path1" />
      <path
         d="m153.53,243.57c-49.65,0-90.04-40.39-90.04-90.04s40.39-90.04,90.04-90.04,90.04,40.39,90.04,90.04-40.39,90.04-90.04,90.04Zm0-165.08c-41.37,0-75.04,33.66-75.04,75.04s33.66,75.04,75.04,75.04,75.04-33.66,75.04-75.04-33.66-75.04-75.04-75.04Z"
         id="path2" />
      <path
         d="m248.77,81.67c-12.88,0-23.38-10.49-23.38-23.38s10.49-23.38,23.38-23.38,23.38,10.49,23.38,23.38-10.49,23.38-23.38,23.38Zm0-37.51c-7.8,0-14.13,6.34-14.13,14.13s6.34,14.13,14.13,14.13,14.13-6.34,14.13-14.13-6.34-14.13-14.13-14.13Z"
         id="path3" />
    </g>
  </g>
</svg>
