<?xml version="1.0" encoding="UTF-8" standalone="no"?>
<svg
   viewBox="0 -14.01 248.89027 250.00001"
   version="1.1"
   inkscape:version="1.3.2 (091e20ef0f, 2023-11-25, custom)"
   xmlns:inkscape="http://www.inkscape.org/namespaces/inkscape"
   xmlns:sodipodi="http://sodipodi.sourceforge.net/DTD/sodipodi-0.dtd"
   xmlns="http://www.w3.org/2000/svg"
   xmlns:svg="http://www.w3.org/2000/svg">
  <path
     id="whatsapp-icon"
     d="M 124.45937,-14.01 C 55.826611,-14.01 0,41.81661 0,110.44936 c 0,23.29522 6.4561925,45.94744 18.722967,65.64421 0.276804,0.40792 0.341454,0.82814 0.341454,1.30891 -0.553608,6.78896 -5.343051,19.98657 -10.4712046,34.05985 C 5.4026893,220.26179 2.0785322,229.33213 0.19918051,235.99 19.750264,229.95858 43.964273,220.66629 55.400637,215.24677 c 0.699293,-0.33508 1.450717,-0.25176 2.077168,0.17073 19.973574,12.74754 43.132735,19.54813 66.981565,19.54813 68.63275,0 124.4309,-55.8266 124.4309,-124.45936 0,-68.632752 -55.79815,-124.51627 -124.4309,-124.51627 z M 81.322557,45.203521 c 4.297744,0 8.393812,1.662648 11.438653,4.780333 l 19.34896,19.348964 c 0.83042,0.83041 0.83042,2.214205 0,3.044615 l -10.27202,10.272025 c -3.46733,3.467326 -3.46733,9.068516 0,12.463006 l 35.85249,35.852486 c 3.9481,3.9481 10.336,3.9481 14.2841,0 l 9.41838,-9.36148 c 0.84498,-0.83041 2.2142,-0.83041 3.04462,0 l 19.91805,19.8896 c 3.04485,3.04485 4.78034,7.1409 4.78034,11.43865 0,4.29775 -1.66265,8.3938 -4.78034,11.43865 l -7.99567,7.99567 c -3.11769,3.11769 -7.20123,4.76441 -11.35329,4.83725 -1.18006,0 -2.43365,-0.15001 -3.61371,-0.42681 C 144.69749,173.03234 112.53037,157.77509 93.387206,135.65992 74.316887,113.54476 61.146137,88.745964 56.994081,75.080598 55.260416,69.325994 56.766678,63.101081 61.006146,58.861614 l 8.87776,-8.87776 c 3.044841,-3.044841 7.140909,-4.780333 11.438651,-4.780333 z" />
</svg>
