<?xml version="1.0" encoding="UTF-8" standalone="no"?>
<svg
   viewBox="0 -15.002 130.83425 249.99999"
   version="1.1"
   inkscape:version="1.3.2 (091e20ef0f, 2023-11-25, custom)"
   xmlns:inkscape="http://www.inkscape.org/namespaces/inkscape"
   xmlns:sodipodi="http://sodipodi.sourceforge.net/DTD/sodipodi-0.dtd"
   xmlns="http://www.w3.org/2000/svg"
   xmlns:svg="http://www.w3.org/2000/svg">
  <path
     d="M 84.841876,234.998 H 36.777535 c -1.949291,0 -3.571428,-1.62214 -3.571428,-3.5578 V 123.62941 H 3.5714286 C 1.6221374,123.62941 0,122.00727 0,120.05798 V 76.791893 C 0,74.842602 1.6221374,73.220465 3.5714286,73.220465 H 33.206107 V 39.36005 c 0,-29.975463 24.400218,-54.36205 54.36205,-54.36205 h 39.708283 c 1.9493,0 3.5578,1.622137 3.5578,3.571429 v 40.089967 c 0,1.93566 -1.6085,3.557797 -3.5578,3.557797 h -23.93675 c -8.246996,0 -14.926386,6.693021 -14.926386,14.92639 v 26.076882 h 38.863136 c 1.9493,0 3.5578,1.622137 3.5578,3.571428 v 43.266087 c 0,1.94929 -1.6085,3.57143 -3.5578,3.57143 H 88.413304 V 231.4402 c 0,1.93566 -1.622137,3.5578 -3.571428,3.5578 z"
     />
</svg>
