<?xml version="1.0" encoding="UTF-8" standalone="no"?>
<svg
   id="phone-icon"
   version="1.1"
   sodipodi:docname="phone-icon.svg"
   inkscape:version="1.3.2 (091e20ef0f, 2023-11-25, custom)"
   viewBox="0 0 248.74687 227.74318"
   xmlns:inkscape="http://www.inkscape.org/namespaces/inkscape"
   xmlns:sodipodi="http://sodipodi.sourceforge.net/DTD/sodipodi-0.dtd"
   xmlns="http://www.w3.org/2000/svg"
   xmlns:svg="http://www.w3.org/2000/svg">
  <path
     id="phone-icon-path"
     d="M 98.812204,0.00935504 C 97.665641,0.04694956 96.548243,0.20496142 95.508193,0.4743679 85.370836,3.0932858 79.567098,9.161741 77.83786,19.123661 74.316723,39.210414 70.81181,59.317906 67.240553,79.354542 L 63.006527,103.4371 c -1.491158,8.40812 -3.001317,16.82473 -4.429821,25.23284 -3.458479,19.74842 -7.036818,40.12083 -10.670727,60.15745 -1.014993,5.60124 0.299761,11.33937 3.695596,16.22636 3.458479,4.94964 8.785842,8.39797 14.023686,9.30019 16.340066,2.74421 32.908965,5.7471 48.948299,8.54146 8.53342,1.49117 17.00563,3.03655 25.52654,4.52772 9.89926,1.72924 19.85714,-3.68838 23.6665,-12.87339 1.07764,-2.61894 1.67755,-5.55252 2.15372,-8.29674 9.77396,-55.28556 19.55976,-110.623508 29.27107,-165.959186 0.3634,-1.904674 0.53845,-3.81151 0.53845,-5.653526 C 195.90527,25.091865 188.1119,15.24539 178.98951,13.641461 167.36099,11.548825 156.26141,9.5852015 145.45993,7.7431849 130.43558,5.049078 116.0725,2.6104677 102.23858,0.2296276 101.13588,0.04793119 99.958762,-0.02823948 98.812204,0.00935504 Z M 89.144915,27.200134 c 0.156634,0.0073 0.377101,0.03519 0.734227,0.09785 33.331738,5.901975 63.227578,11.154357 91.484368,16.103989 l 0.70974,0.171327 c 0.0627,0.05013 0.0639,0.290365 -0.0489,0.954493 -3.75921,20.926311 -7.46363,41.934067 -11.1602,62.923027 l -16.22637,91.90042 c -0.0501,0.47617 -0.15764,0.94632 -0.22029,1.29713 -0.35086,0 -0.84657,-0.10901 -1.27266,-0.17129 l -16.03056,-2.81454 c -24.9863,-4.41079 -50.030352,-8.82558 -75.91883,-13.41182 9.247674,-52.89219 18.48858,-105.119353 27.435518,-156.169527 0.125308,-0.588949 0.244738,-0.832113 0.244738,-0.832113 0.03133,-0.03133 0.112527,-0.05681 0.269212,-0.04898 z m -59.888237,8.98201 c -0.947288,0.02506 -1.89626,0.349295 -2.765578,0.978972 -2.393369,1.666586 -4.650288,3.689139 -6.730391,5.531156 -9.9619249,9.00959 -15.9822133,20.162819 -19.08983316,34.949078 0,0.889685 -0.1194344,1.908204 -0.2447414,2.985851 -0.23808384,2.857006 -0.4787141,6.029649 -0.41606053,9.300174 0.17543018,7.455776 1.98848549,14.962535 5.38431219,22.418315 1.9046703,4.22285 3.8545862,7.73735 5.9472169,10.71968 1.077643,1.61646 2.749527,2.38887 4.478769,2.27608 1.904672,-0.17543 3.576554,-1.43575 4.478769,-3.35295 0.952334,-2.01745 0.638672,-3.91568 -1.027915,-6.53459 -7.869294,-12.5182 -10.2540694,-25.223095 -7.14645,-38.69363 2.029976,-9.072247 5.660983,-16.355799 11.086789,-22.32042 1.967322,-2.205409 4.231292,-4.166089 6.436699,-6.020637 1.077646,-0.952342 2.152946,-1.849661 3.230587,-2.814535 2.142758,-1.967321 2.390045,-4.939868 0.660803,-7.195393 -1.119933,-1.495854 -2.704153,-2.268881 -4.282976,-2.227151 z m 14.978178,21.170143 c -1.003827,0.04584 -2.049958,0.437986 -3.083742,1.199223 -8.282812,5.901974 -13.298276,13.495075 -14.488695,21.95331 v 0.04898 c -1.967326,10.199968 0.0029,19.034003 6.143011,27.6802 1.616461,2.33073 4.409266,2.79123 6.852761,1.17477 2.393368,-1.54128 3.178698,-4.45705 1.737663,-6.95067 l -0.465003,-0.90554 c -0.413516,-0.71426 -0.83584,-1.43947 -1.199232,-2.153717 -4.348166,-8.583545 -4.228735,-16.688256 0.244735,-24.131501 1.729239,-2.869537 4.154935,-5.256278 6.485649,-7.586992 l 0.954494,-0.905547 c 2.330713,-2.330704 2.697437,-5.072994 0.905535,-7.391187 -0.889684,-1.140294 -1.917798,-1.84515 -3.108217,-1.957933 -0.328932,-0.05953 -0.644356,-0.08866 -0.978959,-0.07341 z M 233.7137,72.036769 c -0.62026,-0.0164 -1.30574,0.07759 -1.9824,0.293686 -1.77937,0.601471 -3.03442,1.666002 -3.57322,3.157167 -0.60148,1.603929 -0.35713,3.468868 0.78318,5.310884 0.41351,0.714254 0.82214,1.366049 1.24818,2.080303 1.25307,1.967332 2.523,4.011023 3.47533,6.216432 4.23538,9.535892 5.23727,19.565639 3.15717,30.592689 -1.61648,8.34546 -4.88898,15.6245 -9.83861,21.46382 -2.44349,2.85698 -5.24511,5.36375 -8.052,7.80725 -0.88969,0.77691 -1.80247,1.59709 -2.69214,2.37399 -2.44351,2.20539 -2.91773,5.1435 -1.12577,7.58698 1.77937,2.4435 4.65772,2.91478 7.46461,1.24819 0.76438,-0.47618 1.53738,-1.0264 2.25163,-1.61529 12.83145,-10.67622 20.39755,-23.13379 23.07911,-38.03282 0.1253,-1.31574 0.24185,-2.6861 0.36715,-3.98929 0.23808,-2.86954 0.51514,-5.85579 0.46501,-8.71279 -0.23807,-11.628528 -3.87867,-22.600426 -11.20916,-33.627484 -0.77691,-1.127762 -1.86473,-1.866693 -3.23059,-2.104771 -0.19422,-0.0282 -0.38067,-0.04344 -0.58731,-0.04898 z M 211.90724,86.8681 c -0.82001,0.0063 -1.67305,0.236135 -2.47189,0.734231 -2.50615,1.428508 -3.38898,3.808179 -2.37399,6.314334 0.30074,0.714244 0.69972,1.366049 1.12577,2.080293 l 0.29372,0.489491 c 3.04498,5.062411 4.18175,10.796051 3.27953,16.936111 -0.95233,6.74153 -4.52108,12.53194 -10.54835,17.18085 -2.38085,1.84203 -2.8061,4.75307 -1.0769,7.14645 1.85455,2.50615 4.59018,2.92848 7.14646,1.19919 8.29534,-5.60123 13.13322,-13.43632 15.10055,-24.40072 1.67912,-8.17004 -0.70598,-17.468096 -6.60803,-25.57548 -0.7769,-1.127763 -1.91896,-1.793269 -3.05925,-2.031357 -0.26629,-0.04386 -0.53432,-0.07561 -0.80762,-0.07341 z m -106.8786,111.45526 c 0.56717,-0.015 1.15655,0.0188 1.73766,0.12281 4.64891,0.83956 7.74127,5.26312 6.90171,9.91204 -0.83956,4.6489 -5.23865,7.74126 -9.88756,6.9017 -4.6489,-0.82704 -7.76574,-5.23867 -6.926178,-9.88756 0.734616,-4.0678 4.204218,-6.94662 8.174368,-7.04855 z m 0.049,2.96137 c -2.59411,0.0752 -4.83942,1.96128 -5.310888,4.62561 -0.538824,3.04498 1.507218,5.89788 4.552188,6.43671 3.04498,0.53882 5.89788,-1.48275 6.4367,-4.52772 0.53883,-3.03245 -1.48274,-5.92236 -4.52771,-6.46117 -0.38063,-0.0664 -0.7797,-0.084 -1.15029,-0.0739 z"
     inkscape:highlight-color="#070707"
     inkscape:label="#phone-icon" />
</svg>
