<?xml version="1.0" encoding="UTF-8" standalone="no"?>
<svg
   viewBox="0 -13.831 359.80929 250"
   version="1.1"
   inkscape:version="1.3.2 (091e20ef0f, 2023-11-25, custom)"
   xmlns:inkscape="http://www.inkscape.org/namespaces/inkscape"
   xmlns:sodipodi="http://sodipodi.sourceforge.net/DTD/sodipodi-0.dtd"
   xmlns="http://www.w3.org/2000/svg"
   xmlns:svg="http://www.w3.org/2000/svg">
  <path
     id="youtube-icon"
     d="M 35.35927,-8.831 C 19.74015,-8.831 7,2.7332954 7,16.95923 V 205.39496 C 7,219.60541 19.74015,231.169 35.35927,231.169 h 288.69838 c 15.61912,0 28.35927,-11.56359 28.35927,-25.77404 V 16.95923 c 0,-14.2259346 -12.74015,-25.79023 -28.35927,-25.79023 z m 105.85949,61.721686 c 0.47988,0.02709 0.95852,0.119181 1.3223,0.304938 L 240.375,106.89716 c 1.50451,0.82412 2.58021,1.75279 3.22749,2.65809 0.0439,0.0598 0.0872,0.11866 0.12684,0.17811 0.13711,0.21227 0.25688,0.4193 0.33732,0.62606 0.10443,0.24825 0.16622,0.49136 0.18619,0.72593 9.6e-4,0.027 0.0216,0.0569 0.0216,0.0836 0,0.009 -0.008,0.0182 -0.008,0.027 4.7e-4,0.0168 0.008,0.0346 0.008,0.0513 0,1.31578 -1.4691,2.94057 -3.89943,4.27183 l -97.83395,53.69889 c -0.36378,0.22447 -0.84242,0.31722 -1.3223,0.33463 -0.002,7e-5 -0.004,-6e-5 -0.006,0 -0.47804,0.0168 -0.95721,-0.0417 -1.3196,-0.11874 V 52.979739 c 0.36378,-0.0774 0.84512,-0.116142 1.325,-0.08905 z" />
</svg>
