<?xml version="1.0" encoding="UTF-8" standalone="no"?>
<svg
   viewBox="0 -16.174 218.23009 250.00001"
   version="1.1"
   inkscape:version="1.3.2 (091e20ef0f, 2023-11-25, custom)"
   xmlns:inkscape="http://www.inkscape.org/namespaces/inkscape"
   xmlns:sodipodi="http://sodipodi.sourceforge.net/DTD/sodipodi-0.dtd"
   xmlns="http://www.w3.org/2000/svg"
   xmlns:svg="http://www.w3.org/2000/svg">
  <path
     d="M 85.248458,233.826 H 72.23084 c 0,0 -3.661206,-0.53305 -3.661206,-0.53305 C 52.550108,230.95034 38.662778,224.60986 27.244306,214.4679 6.020538,195.43244 -2.8589368,171.40315 0.8022684,143.03933 3.3412652,123.73735 12.361016,107.45129 27.580969,94.573952 45.802829,79.213723 66.830211,73.013521 90.130065,76.085567 c 3.001908,0.392773 4.530917,2.132196 4.530917,5.204242 -0.126248,9.60891 -0.196386,19.287961 -0.322635,28.896871 l -0.140276,13.01762 c 0,0.53305 -0.126248,1.00998 -0.196386,1.27651 v 0.26652 c 0,0 -0.673325,2.66525 -0.673325,2.66525 l -2.595108,-0.6593 c -6.073953,-1.61317 -11.292223,-1.93581 -16.496465,-1.20637 -8.136011,1.26248 -15.949388,6.14409 -20.887105,13.08775 -3.478847,4.93772 -7.21019,13.28415 -4.951745,24.75873 2.482886,12.62484 10.352373,21.02738 22.836943,24.50623 12.288183,3.33857 23.103467,0.26652 32.03905,-9.146 5.47077,-5.75132 8.00977,-11.82527 7.95366,-18.62866 0,-3.07205 0,-6.1441 0.12624,-9.146 0.0701,-2.34261 0.14028,-4.74133 0.19639,-7.14005 0,-23.76277 0,-47.525535 0.0701,-71.302328 0,-22.963191 0,-45.926383 0.0701,-68.8895743 0,-3.92772973 0.12624,-7.9396251 0.19638,-11.8112445 0,-1.7955336 0.0701,-3.6050952 0.14028,-5.4707662 V -16.174 h 44.91639 l 0.21042,2.398721 c 0,0.603187 0.0561,1.276512 0.12625,1.879699 0.0701,1.332623 0.14027,2.5249691 0.26652,3.8014812 1.40276,11.2080575 4.93772,20.5644708 10.88542,28.6303448 8.7392,12.021658 21.15363,19.231848 39.05286,22.766805 1.93581,0.4068 3.92773,0.729435 5.86354,1.136236 l 4.8816,0.93985 v 45.519582 h -2.67927 c -20.28384,-0.336662 -39.44555,-6.073953 -56.7977,-17.015486 v 18.684771 c 0,16.819096 0,34.241386 -0.0701,51.341036 v 1.33263 c 0,6.73325 -0.0701,13.74705 -0.93985,20.55044 -1.79554,13.55067 -6.99978,25.97913 -15.48648,36.9908 -12.48457,16.08966 -28.82673,26.16148 -48.731904,29.83672 -1.795534,0.33666 -3.661205,0.60318 -5.470766,0.86971 -0.799574,0.12625 -1.669286,0.26652 -2.805522,0.33666 z m 0,0 z"
     id="tiktok-icon" />
</svg>
